<svg xmlns="http://www.w3.org/2000/svg" viewBox="0 0 900 420" role="img" aria-labelledby="title desc"><title id="title">從採集狩獵到農耕定居</title><desc id="desc">三格圖示展示採集狩獵、農耕、村落變大的變化。</desc><rect width="900" height="420" rx="30" fill="#fff4df"/><g font-family="system-ui, sans-serif" text-anchor="middle"><g transform="translate(150 210)"><circle r="92" fill="#f4d09b"/><path d="M85 0 A85 85 0 0 1 -80 27" fill="none" stroke="#6f3f24" stroke-width="10"/><circle cx="-24" cy="-22" r="18" fill="#9c352a"/><path d="M-24 -2 v50 M-54 24 h60 M-10 48 l34 38 M-34 48 l-28 36" stroke="#2a1b13" stroke-width="8" stroke-linecap="round"/><text y="138" font-size="28" font-weight="800" fill="#2a1b13">採集・狩獵</text></g><text x="300" y="214" font-size="54" fill="#c6852d">→</text><g transform="translate(450 210)"><circle r="92" fill="#dce8b6"/><path d="M-70 45 C-25 10 24 10 70 45" fill="none" stroke="#3f806b" stroke-width="12"/><path d="M-48 38 C-42 0 -32 -35 -18 -60 M0 42 C5 0 12 -36 28 -62 M45 40 C46 10 55 -18 70 -40" stroke="#3f806b" stroke-width="8" stroke-linecap="round"/><circle cx="-45" cy="-16" r="10" fill="#c6852d"/><circle cx="20" cy="-24" r="10" fill="#c6852d"/><text y="138" font-size="28" font-weight="800" fill="#2a1b13">種粟・種稻</text></g><text x="600" y="214" font-size="54" fill="#c6852d">→</text><g transform="translate(750 210)"><circle r="92" fill="#ecd0bd"/><path d="M-70 34 L-30 -10 L10 34 Z M-5 34 L35 -18 L78 34 Z" fill="#fff8ec" stroke="#6f3f24" stroke-width="7"/><rect x="-42" y="34" width="80" height="38" fill="#c6852d"/><rect x="25" y="34" width="72" height="38" fill="#9c352a"/><path d="M-82 74 H82" stroke="#2a1b13" stroke-width="8" stroke-linecap="round"/><text y="138" font-size="28" font-weight="800" fill="#2a1b13">定居村落</text></g></g></svg>