<svg xmlns="http://www.w3.org/2000/svg" viewBox="0 0 1000 420" role="img" aria-labelledby="title desc"><title id="title">傳說人物卡片</title><desc id="desc">伏羲、神農、黃帝、堯舜禹四張簡化人物卡片。</desc><rect width="1000" height="420" fill="#fff8ec"/><g font-family="system-ui, sans-serif" text-anchor="middle"><g transform="translate(130 210)"><rect x="-95" y="-150" width="190" height="300" rx="30" fill="#f1d3a2"/><circle cy="-70" r="42" fill="#b87545"/><path d="M-48 15 C-20 -30 22 -30 50 15 V80 H-48Z" fill="#9c352a"/><path d="M-52 58 C-12 16 30 16 62 58" fill="none" stroke="#2a1b13" stroke-width="7"/><text y="124" font-size="32" font-weight="900">伏羲</text><text y="155" font-size="18" fill="#725b4d">漁網・八卦</text></g><g transform="translate(370 210)"><rect x="-95" y="-150" width="190" height="300" rx="30" fill="#dce8b6"/><circle cy="-70" r="42" fill="#b87545"/><path d="M-50 24 C-28 -36 28 -36 50 24 V82 H-50Z" fill="#3f806b"/><path d="M-58 18 C-40 -12 -12 -20 4 -48 M30 4 C50 -26 70 -32 84 -58" stroke="#6a8f46" stroke-width="8" stroke-linecap="round"/><text y="124" font-size="32" font-weight="900">神農</text><text y="155" font-size="18" fill="#725b4d">農耕・百草</text></g><g transform="translate(610 210)"><rect x="-95" y="-150" width="190" height="300" rx="30" fill="#f4c27d"/><circle cy="-70" r="42" fill="#b87545"/><path d="M-58 8 C-26 -42 28 -42 60 8 V84 H-58Z" fill="#c6852d"/><path d="M-45 -118 H45 L20 -88 H-20Z" fill="#9c352a"/><text y="124" font-size="32" font-weight="900">黃帝</text><text y="155" font-size="18" fill="#725b4d">祖先・制度</text></g><g transform="translate(850 210)"><rect x="-95" y="-150" width="190" height="300" rx="30" fill="#cfe0ec"/><circle cy="-70" r="42" fill="#b87545"/><path d="M-55 18 C-20 -35 20 -35 55 18 V85 H-55Z" fill="#446c8f"/><path d="M-70 30 C-25 52 24 52 70 30" fill="none" stroke="#3f806b" stroke-width="10"/><text y="124" font-size="32" font-weight="900">堯舜禹</text><text y="155" font-size="18" fill="#725b4d">德行・治水</text></g></g></svg>