<svg xmlns="http://www.w3.org/2000/svg" viewBox="0 0 900 520" role="img" aria-labelledby="title desc"><title id="title">良渚水利與城市示意圖</title><desc id="desc">用簡化圖表展示水壩、水渠、城牆、玉器與稻田。</desc><rect width="900" height="520" fill="#edf5ef"/><path d="M0 360 C180 300 300 390 460 340 C620 292 725 330 900 282 V520 H0Z" fill="#cfe3d5"/><path d="M92 80 H808 V390 H92Z" fill="#fff8ec" stroke="#8b6238" stroke-width="20"/><path d="M168 150 H732 V320 H168Z" fill="none" stroke="#c6852d" stroke-width="8" stroke-dasharray="18 14"/><path d="M0 138 C160 180 242 115 392 140 C556 168 658 120 900 158" fill="none" stroke="#3f806b" stroke-width="26"/><path d="M120 110 L240 110 M595 140 L760 140" stroke="#6f3f24" stroke-width="24" stroke-linecap="round"/><path d="M455 146 V370" stroke="#3f806b" stroke-width="16" stroke-linecap="round"/><g font-family="system-ui, sans-serif" fill="#2a1b13"><text x="52" y="52" font-size="30" font-weight="900">良渚：城市 + 水利 + 玉器</text><text x="124" y="105" font-size="20" font-weight="700">水壩</text><text x="470" y="250" font-size="20" font-weight="700">水渠</text><text x="335" y="238" font-size="24" font-weight="900">城</text><text x="614" y="246" font-size="24" font-weight="900">祭祀/管理中心</text></g><g transform="translate(640 290)"><rect x="0" y="0" width="90" height="90" rx="16" fill="#3f806b"/><circle cx="45" cy="45" r="24" fill="#edf5ef"/><text x="45" y="126" text-anchor="middle" font-family="system-ui, sans-serif" font-size="22" font-weight="800" fill="#2a1b13">玉琮</text></g><g stroke="#7aa361" stroke-width="5"><path d="M112 430 H358 M112 458 H358 M112 486 H358"/><path d="M140 408 V504 M190 408 V504 M240 408 V504 M290 408 V504 M340 408 V504"/></g><text x="170" y="392" font-family="system-ui, sans-serif" font-size="22" font-weight="800" fill="#2a1b13">稻田</text></svg>